# xmcd
#
# Track frame offsets:
#	150
#	13052
#	25174
#	40121
#	55152
#	80068
#	91567
#	115148
#	143257
#
# Disc length: 2255 seconds
#
# Revision: 1
# Processed by: cddbd v1.5.1PL0 Copyright (c) Steve Scherf et al.
# Submitted via: audiograbber 1.83.01
#
DISCID=6008cd09
DTITLE=Canned Heat - The New Age
DYEAR=1972
DGENRE=Blues
TTITLE0=Keep it clean
TTITLE1=Harley Davidson Blues
TTITLE2=You can run but you sure can't
TTITLE3=Don't deceive me
TTITLE4=Looking for my rainbow
TTITLE5=Rock'n roll music
TTITLE6=Framed
TTITLE7=Election Blues
TTITLE8=So long wrong
EXTD=
EXTT0=
EXTT1=
EXTT2=
EXTT3=
EXTT4=
EXTT5=
EXTT6=
EXTT7=
EXTT8=
PLAYORDER=
